<?xml version="1.0" ?><!DOCTYPE svg  PUBLIC '-//W3C//DTD SVG 1.1//EN'  'http://www.w3.org/Graphics/SVG/1.1/DTD/svg11.dtd'><svg enable-background="new 0 0 100 100" height="100px" id="Layer_1" version="1.1" viewBox="0 0 100 100" width="100px" xml:space="preserve" xmlns="http://www.w3.org/2000/svg" xmlns:xlink="http://www.w3.org/1999/xlink"><g><path d="M49.389,95.987c25.352,0,45.978-20.625,45.978-45.978S74.741,4.032,49.389,4.032S3.411,24.658,3.411,50.01   S24.037,95.987,49.389,95.987z M49.389,6.032c24.25,0,43.978,19.728,43.978,43.978S73.638,93.987,49.389,93.987   S5.411,74.259,5.411,50.01S25.139,6.032,49.389,6.032z" fill="#9AC24E"/><path d="M28.188,34.796c0.256,0,0.512-0.098,0.708-0.293c0.147-0.147,0.303-0.314,0.464-0.488   c0.355-0.382,0.758-0.815,1.101-1.04c0.067-0.043,0.128-0.095,0.183-0.153c1.118-1.193,2.31-2.366,3.462-3.5   c1.115-1.097,2.269-2.232,3.367-3.396c0.379-0.402,0.36-1.035-0.042-1.414c-0.401-0.378-1.034-0.36-1.414,0.042   c-1.073,1.137-2.212,2.259-3.314,3.343c-1.142,1.123-2.321,2.283-3.444,3.478c-0.504,0.354-0.96,0.844-1.364,1.28   c-0.145,0.155-0.283,0.305-0.415,0.437c-0.39,0.391-0.39,1.023,0.001,1.414C27.676,34.698,27.932,34.796,28.188,34.796z" fill="#9AC24E"/><path d="M57.815,50.499c1.573-0.229,3.404-0.024,4.948,0.545c0.112,0.042,0.229,0.062,0.346,0.062   c0.205,0,0.408-0.063,0.58-0.185c0.27-0.191,0.427-0.504,0.42-0.834c-0.041-2.091-0.721-3.598-1.916-4.243   c-1.195-0.646-2.977-0.521-4.013,0.292c-1.024,0.803-1.272,2.066-1.492,3.181c-0.063,0.319,0.033,0.648,0.257,0.883   C57.17,50.435,57.493,50.547,57.815,50.499z M59.415,47.709c0.413-0.323,1.33-0.376,1.828-0.106   c0.297,0.161,0.535,0.557,0.685,1.113c-0.789-0.179-1.728-0.313-2.771-0.313c-0.061,0-0.123,0-0.184,0.001   C59.085,48.096,59.223,47.86,59.415,47.709z" fill="#9AC24E"/><path d="M27.561,45.883c0.431,2.756,0.992,5.998,1.882,9.14c0.498,1.758,0.994,3.287,2.027,4.195   c0.898,0.789,2.259,1.157,3.575,1.513l0.336,0.092c2.679,0.736,4.638,1.143,7.487,1.552c0.25,0.036,0.528,0.097,0.822,0.16   c0.65,0.14,1.387,0.299,2.139,0.299h0c0.545,0,1.021-0.083,1.457-0.252c1.582-0.616,2.106-2.638,2.475-4.17   c0.382,0.546,0.896,1.02,1.594,1.398c0.851,0.462,2.219,0.824,4.182,1.106c0.484,0.07,0.984,0.119,1.475,0.166   c0.929,0.09,1.889,0.182,2.448,0.425c1.04,0.452,1.473,1.549,1.659,4.239c0.093,1.328,0.232,3.334-0.472,3.865   c-0.521,0.395-2.247,0.395-3.507,0.395c-2.114,0-2.554-0.242-2.628-0.387c-0.233-0.453-0.134-1.344,0.002-1.544   c0.172-0.2,0.854-0.215,1.401-0.227c0.452-0.01,0.92-0.02,1.395-0.103c0.5-0.086,0.856-0.534,0.828-1.041   c-0.014-0.25-0.043-0.497-0.074-0.744c-0.043-0.349-0.084-0.679-0.062-0.984c0.012-0.154,0.063-0.337,0.117-0.53   c0.105-0.371,0.235-0.833,0.131-1.338c-0.09-0.436-0.458-0.759-0.901-0.794c-0.795-0.062-1.497-0.093-2.145-0.093   c-2.965,0-4.899,0.687-5.912,2.099c-1.582,2.208-1.672,7.666-0.167,10.069c1.718,2.746,5.883,2.811,8.926,2.859l0.573,0.004   c3.411,0,5.605-0.495,6.906-1.557c1.744-1.423,2.719-3.896,3.302-5.631c1.473-4.39,2.092-8.755,2.568-13.959   c0.195-2.129,0.123-4.311,0.053-6.42c-0.018-0.531-0.035-1.062-0.049-1.591c-0.095-3.733-0.37-8.053-0.734-11.556l-0.03-0.287   c-0.137-1.315-0.266-2.558-0.63-3.489c-0.998-2.546-3.311-3.158-5.796-3.605c-3.628-0.652-6.942-0.927-10.301-0.839   c-0.897-2.668-3.034-3.385-5.24-3.741c-1.229-0.198-2.41-0.299-3.507-0.299c-4.461,0-6.12,1.675-6.726,3.08   c-0.495,1.149-0.441,2.401-0.384,3.728c0.019,0.424,0.038,0.862,0.038,1.312c0,0.298,0.016,0.616,0.032,0.937   c0.035,0.665,0.073,1.418-0.085,1.789c-0.113,0.266-0.423,0.538-1.858,0.538c-0.467,0-0.969-0.026-1.487-0.054   c-0.925-0.047-1.899-0.096-2.84-0.028c-0.705,0.051-1.811,0.272-2.609,0.725c-2.958,1.678-2.305,5.74-1.78,9.004L27.561,45.883z    M30.235,38.04c0.399-0.227,1.143-0.424,1.768-0.469c0.857-0.064,1.747-0.014,2.59,0.03c0.556,0.029,1.092,0.056,1.592,0.056   c0.883,0,2.949,0,3.698-1.753c0.339-0.796,0.29-1.752,0.243-2.677c-0.015-0.286-0.03-0.568-0.03-0.834   c0-0.479-0.02-0.946-0.039-1.398c-0.049-1.139-0.091-2.122,0.222-2.85c0.703-1.628,3.365-1.872,4.89-1.872   c0.978,0,2.08,0.095,3.188,0.273c2.498,0.403,3.427,1.133,3.825,3.002c0.102,0.478,0.521,0.807,1.022,0.791   c3.499-0.155,6.89,0.104,10.658,0.782c2.45,0.44,3.716,0.907,4.288,2.366c0.266,0.679,0.387,1.842,0.503,2.966l0.03,0.289   c0.354,3.402,0.632,7.769,0.725,11.398c0.013,0.535,0.031,1.07,0.049,1.606c0.068,2.048,0.139,4.167-0.045,6.171   c-0.464,5.064-1.062,9.299-2.474,13.505c-0.8,2.385-1.648,3.884-2.67,4.718c-0.899,0.734-2.797,1.106-5.642,1.106l-0.543-0.004   c-3.225-0.05-6.208-0.235-7.261-1.92c-1.06-1.691-1.002-6.309,0.097-7.843c0.602-0.839,2.044-1.264,4.287-1.264   c0.286,0,0.584,0.006,0.9,0.02c-0.043,0.179-0.081,0.377-0.097,0.589c-0.026,0.361-0.004,0.701,0.029,1.016   c-0.055,0.001-0.109,0.002-0.165,0.004c-0.994,0.021-2.121,0.046-2.875,0.923c-0.708,0.824-0.835,2.653-0.263,3.763   c0.699,1.359,2.483,1.471,4.406,1.471c1.881,0,3.658,0,4.713-0.798c1.569-1.183,1.398-3.632,1.258-5.644   c-0.16-2.319-0.526-4.879-2.855-5.891c-0.85-0.369-1.92-0.472-3.053-0.581c-0.459-0.044-0.928-0.089-1.382-0.154   c-2.119-0.305-3.08-0.649-3.513-0.884c-1.392-0.754-1.589-2.058-1.733-5.073c-0.016-0.327-0.19-0.625-0.467-0.799   c-0.276-0.174-0.621-0.202-0.922-0.074c-0.925,0.393-0.852,1.409-0.821,1.842c0.007,0.101,0.017,0.203,0.013,0.294   c-0.048,1.097-0.223,2.293-0.503,3.459l-0.028,0.119c-0.238,0.989-0.636,2.645-1.287,2.898c-0.2,0.078-0.439,0.116-0.731,0.116   c0,0,0,0,0,0c-0.538,0-1.138-0.129-1.717-0.254c-0.343-0.074-0.668-0.143-0.96-0.185c-2.791-0.401-4.618-0.78-7.241-1.501   L35.567,58.8c-1.044-0.283-2.228-0.603-2.777-1.086c-0.673-0.591-1.106-2.121-1.423-3.237c-0.862-3.04-1.409-6.206-1.831-8.903   l-0.093-0.586C29.017,42.334,28.486,39.032,30.235,38.04z" fill="#9AC24E"/></g></svg>